<?xml version="1.0" standalone="no"?>
<!DOCTYPE svg PUBLIC "-//W3C//DTD SVG 20010904//EN"
 "http://www.w3.org/TR/2001/REC-SVG-20010904/DTD/svg10.dtd">
<svg version="1.0" xmlns="http://www.w3.org/2000/svg"
 width="211.000000pt" height="130.000000pt" viewBox="0 0 211.000000 130.000000"
 preserveAspectRatio="xMidYMid meet">

<g transform="translate(0.000000,130.000000) scale(0.100000,-0.100000)"
fill="#000000" stroke="none">
<path d="M859 1285 c-193 -32 -355 -99 -529 -217 l-85 -58 -5 55 c-7 78 -39
105 -124 105 -51 0 -64 -4 -88 -27 l-28 -27 0 -356 0 -356 28 -27 c25 -24 36
-27 93 -27 77 0 93 13 155 120 20 36 50 82 66 103 l30 37 678 0 678 0 62 -97
c35 -54 77 -113 93 -131 29 -30 36 -32 95 -32 59 0 66 3 93 31 l29 31 0 347 0
347 -33 32 c-30 29 -39 32 -93 32 -55 0 -63 -3 -92 -33 -27 -27 -32 -41 -32
-80 l0 -46 -97 66 c-168 114 -332 179 -525 207 -124 19 -263 19 -369 1z m169
-124 c1 -52 -1 -98 -5 -102 -5 -5 -74 9 -153 31 -226 62 -260 73 -260 80 0 6
101 40 165 55 46 11 207 33 230 32 18 -2 20 -10 23 -96z m152 88 c114 -14 300
-64 300 -80 0 -8 -7 -11 -90 -33 -30 -8 -113 -31 -183 -50 -70 -20 -130 -36
-132 -36 -3 0 -5 47 -5 105 0 78 3 105 13 105 7 0 51 -5 97 -11z m-1003 -141
l23 -21 0 -330 c0 -377 2 -367 -78 -367 -85 0 -82 -13 -82 366 0 301 2 336 17
354 24 28 89 27 120 -2z m444 8 c24 -8 97 -29 162 -47 107 -30 145 -49 100
-49 -45 -1 -166 -52 -258 -111 -34 -21 -65 -39 -69 -39 -3 0 -6 59 -6 130 0
144 -3 139 71 116z m919 -116 c0 -71 -2 -130 -5 -130 -2 0 -35 20 -72 44 -72
46 -184 94 -239 103 -19 3 -34 9 -34 13 0 6 309 97 338 99 9 1 12 -31 12 -129z
m497 108 l23 -21 0 -326 c0 -320 0 -325 -22 -348 -29 -31 -92 -32 -125 -1
l-23 21 0 322 c0 311 1 323 21 349 27 34 91 37 126 4z m-1587 -24 c0 -12 -195
-304 -202 -304 -5 0 -8 38 -8 84 l0 84 55 42 c98 75 155 110 155 94z m1295
-55 c107 -74 106 -73 103 -169 l-3 -83 -69 104 c-126 190 -140 213 -121 206 9
-4 50 -30 90 -58z m-1303 -273 c-68 -70 -147 -169 -171 -213 -22 -42 -31 -24
-31 58 l0 82 133 200 132 200 3 -128 3 -129 -69 -70z m1282 123 l127 -190 -3
-86 -3 -85 -60 83 c-33 46 -92 118 -132 160 l-73 76 0 117 c0 64 4 116 8 116
5 0 66 -86 136 -191z m-499 95 c80 -21 200 -81 274 -138 34 -26 61 -49 61 -52
0 -2 -229 -4 -510 -4 -280 0 -510 4 -510 8 0 13 120 97 185 129 161 80 333
100 500 57z m422 -271 c18 -21 33 -41 33 -45 0 -5 -286 -8 -635 -8 -349 0
-635 3 -635 7 0 4 17 24 37 45 l37 38 565 0 565 0 33 -37z"/>
<path d="M710 165 c0 -87 3 -105 15 -105 12 0 15 18 15 105 0 87 -3 105 -15
105 -12 0 -15 -18 -15 -105z"/>
<path d="M790 165 c0 -87 3 -105 15 -105 12 0 15 18 15 105 0 87 -3 105 -15
105 -12 0 -15 -18 -15 -105z"/>
<path d="M1140 166 l0 -104 45 2 c51 2 65 14 65 62 0 39 -21 58 -60 52 -30 -5
-30 -4 -30 44 0 26 -4 48 -10 48 -6 0 -10 -41 -10 -104z m80 -21 c26 -31 -13
-82 -44 -56 -16 14 -22 52 -9 64 11 12 40 8 53 -8z"/>
<path d="M1590 221 l0 -48 -37 1 c-31 1 -39 -3 -51 -26 -11 -23 -11 -33 0 -55
12 -25 19 -28 61 -29 l47 -1 0 104 c0 62 -4 103 -10 103 -5 0 -10 -22 -10 -49z
m-4 -86 c7 -27 -9 -55 -31 -55 -22 0 -38 28 -31 55 9 35 53 35 62 0z"/>
<path d="M630 236 c0 -9 7 -16 16 -16 17 0 14 22 -4 28 -7 2 -12 -3 -12 -12z"/>
<path d="M1420 236 c0 -9 7 -16 16 -16 9 0 14 5 12 12 -6 18 -28 21 -28 4z"/>
<path d="M181 118 c20 -39 34 -57 37 -48 3 8 15 36 29 63 18 35 20 47 9 47 -7
0 -19 -13 -26 -30 -16 -38 -25 -38 -39 0 -5 17 -17 30 -26 30 -12 0 -9 -13 16
-62z"/>
<path d="M315 164 c-19 -20 -19 -53 0 -82 13 -17 24 -21 60 -20 l45 2 0 56 0
56 -45 2 c-29 1 -49 -4 -60 -14z m75 -19 c10 -12 10 -21 1 -41 -23 -50 -77
-11 -57 42 7 19 40 18 56 -1z"/>
<path d="M480 118 c0 -69 18 -78 22 -10 3 39 6 47 23 47 17 0 20 -8 23 -48 2
-31 7 -47 15 -44 11 3 11 92 1 109 -3 4 -23 7 -45 6 l-39 -1 0 -59z"/>
<path d="M630 120 c0 -42 4 -60 11 -58 7 2 12 27 12 58 0 31 -5 56 -12 58 -7
2 -11 -16 -11 -58z"/>
<path d="M882 168 c-7 -7 -12 -29 -12 -50 0 -44 17 -57 73 -55 l37 1 0 56 0
57 -43 1 c-24 1 -48 -3 -55 -10z m73 -42 c0 -36 -26 -56 -49 -37 -31 26 -11
75 29 69 15 -2 20 -11 20 -32z"/>
<path d="M1306 122 c2 -69 24 -85 24 -18 0 40 3 48 25 56 35 13 31 19 -12 18
l-38 0 1 -56z"/>
<path d="M1420 120 c0 -33 4 -60 10 -60 6 0 10 27 10 60 0 33 -4 60 -10 60 -6
0 -10 -27 -10 -60z"/>
<path d="M1675 158 c-19 -29 -19 -48 1 -77 14 -19 23 -22 50 -18 34 6 39 1 28
-27 -7 -17 -54 -22 -54 -6 0 6 -7 10 -15 10 -18 0 -19 -12 -3 -28 16 -16 70
-16 86 0 7 7 12 42 12 88 l0 76 -45 2 c-36 1 -47 -3 -60 -20z m75 -13 c26 -31
-13 -82 -44 -56 -16 14 -22 52 -9 64 11 12 40 8 53 -8z"/>
<path d="M1847 162 c-21 -23 -22 -51 -1 -80 18 -26 65 -30 84 -7 17 21 7 29
-18 14 -23 -14 -52 -6 -52 16 0 11 11 15 40 15 32 0 40 4 40 18 0 42 -63 58
-93 24z m68 -12 c4 -6 -7 -10 -25 -10 -18 0 -29 4 -25 10 3 6 15 10 25 10 10
0 22 -4 25 -10z"/>
</g>
</svg>
